# xmcd
#
# Track frame offsets: 
#        150
#        13357
#        24282
#        38645
#        49307
#        63332
#        75282
#        84995
#        92532
#        101370
#        111082
#        121070
#        133695
#        144245
#        155495
#        169982
#        186682
#        194395
#        206732
#        215145
#        225870
#        239895
#        249057
#        264332
#        275695
#        289982
#        301282
#        311007
#
# Disc length: 4324 seconds
#
# Revision: 0
# Processed by: cddbd v1.5.2PL0 Copyright (c) Steve Scherf et al.
# Submitted via: ExactAudioCopy v0.95b4
#
DISCID=8910e21c
DTITLE=Hugues Aufray - Le Rossignol anglais (volume 2)
DYEAR=1993
DGENRE=Chanson
TTITLE0=Tout le long du chemin
TTITLE1=Quatre vents
TTITLE2=N'y pense plus, tout est bien
TTITLE3=Allez, allez mon troupeau
TTITLE4=Dès que le printemps revient
TTITLE5=À bientôt nous deux
TTITLE6=Le bonheur n'est-il pas fait pour moi
TTITLE7=Guidez mes pas
TTITLE8=Debout les gars
TTITLE9=Nous avons beaucoup dansé
TTITLE10=Pends-moi
TTITLE11=Jada
TTITLE12=Tu sens bon la terre
TTITLE13=Personne ne sait
TTITLE14=Le Rossignol anglais
TTITLE15=Le Coeur gros
TTITLE16=Dou wakadou
TTITLE17=On est les rois
TTITLE18=Les Remords et les Regrets
TTITLE19=Bambou
TTITLE20=L'Homme orchestre
TTITLE21=Je croyais
TTITLE22=Laisse-moi petite fille
TTITLE23=Les Yeux fermés
TTITLE24=Il faut ranger ta poupée
TTITLE25=Le Serpent
TTITLE26=Dam Di Dam
TTITLE27=La Soupe à ma grand-mère
EXTD=
EXTT0=
EXTT1=
EXTT2=
EXTT3=
EXTT4=
EXTT5=
EXTT6=
EXTT7=
EXTT8=
EXTT9=
EXTT10=
EXTT11=
EXTT12=
EXTT13=
EXTT14=
EXTT15=
EXTT16=
EXTT17=
EXTT18=
EXTT19=
EXTT20=
EXTT21=
EXTT22=
EXTT23=
EXTT24=
EXTT25=
EXTT26=
EXTT27=
PLAYORDER=
